<svg id="visual" viewBox="0 0 900 600" width="900" height="600" xmlns="http://www.w3.org/2000/svg" xmlns:xlink="http://www.w3.org/1999/xlink" version="1.1"><g fill="#f49414"><circle r="30" cx="773" cy="158"></circle><circle r="4" cx="217" cy="395"></circle><circle r="23" cx="291" cy="474"></circle><circle r="23" cx="524" cy="231"></circle><circle r="7" cx="661" cy="434"></circle><circle r="8" cx="160" cy="193"></circle><circle r="21" cx="75" cy="527"></circle><circle r="11" cx="385" cy="593"></circle><circle r="10" cx="521" cy="373"></circle><circle r="27" cx="728" cy="359"></circle><circle r="26" cx="848" cy="194"></circle><circle r="17" cx="872" cy="425"></circle><circle r="17" cx="683" cy="33"></circle><circle r="6" cx="899" cy="561"></circle><circle r="13" cx="678" cy="144"></circle><circle r="5" cx="492" cy="79"></circle><circle r="13" cx="591" cy="198"></circle><circle r="17" cx="17" cy="540"></circle><circle r="11" cx="503" cy="12"></circle><circle r="14" cx="309" cy="65"></circle><circle r="22" cx="401" cy="452"></circle><circle r="9" cx="866" cy="509"></circle><circle r="13" cx="470" cy="499"></circle></g></svg>